<?xml version="1.0" encoding="utf-8"?>
<!-- Generator: Adobe Illustrator 23.0.1, SVG Export Plug-In . SVG Version: 6.00 Build 0)  -->
<svg version="1.1" id="Layer_1" xmlns="http://www.w3.org/2000/svg" xmlns:xlink="http://www.w3.org/1999/xlink" x="0px" y="0px"
	 viewBox="0 0 1366 768" style="enable-background:new 0 0 1366 768;" xml:space="preserve">
<style type="text/css">
	.st0{font-family:'Rockwell-ExtraBold';}
	.st1{font-size:130px;}
	.st2{fill:none;stroke:#000000;stroke-miterlimit:10;}
	.st3{fill:#FFFFFF;stroke:#FFFFFF;stroke-width:3;stroke-miterlimit:10;}
</style>
<g>
	<text transform="matrix(1 0 0 1 72.8616 421.0161)" class="st0 st1">BONUS REWARD</text>
	<g>
		<path class="st2" d="M138.5,414h-50v-21.1h7.7v-46h-7.7v-21.1h54c10.6,0,18.8,0.6,24.6,1.8c5.7,1.3,10.2,3.8,13.5,7.6
			c3.3,3.9,4.9,8.3,4.9,13.5c0,5-1.5,9-4.6,11.9c-3.2,3-7,5.2-11.6,6.3c6.2,1.9,11,4.7,14.3,8.6c3.4,4,5.1,8.4,5.1,13.4
			c0,5.9-1.9,11-5.7,15.1c-3.8,4.1-9,6.8-15.7,8.1C160.7,413.4,151.1,414,138.5,414z M130.4,345.1v16.1h7.6c5.1,0,8.5-0.7,10.1-2.2
			c1.5-1.5,2.3-3.4,2.3-5.8c0-2.1-0.7-3.9-2.1-5.6s-5.2-2.5-11.5-2.5H130.4z M130.4,377.3v17.4h7.7c4.9,0,8.4-0.6,10.6-1.9
			c2.1-1.3,3.2-3.5,3.2-6.7c0-3-1-5.2-2.9-6.7c-1.9-1.4-5.6-2.1-11-2.1H130.4z"/>
		<path class="st2" d="M200.4,369.6c0-7.4,1.8-14.5,5.4-21.4c3.6-6.9,9.1-12.6,16.6-17.3c2.7-1.7,5.4-3,8.2-3.9
			c2.8-1,5.9-1.7,9.2-2.3c3.3-0.5,6.8-0.8,10.4-0.8c15.8,0,28.1,4.6,36.8,13.9c4.3,4.6,7.6,9.5,9.8,14.9c2.2,5.3,3.3,11,3.3,16.9
			c0,12.3-4.5,23-13.5,32.1c-9,9.1-21.1,13.6-36.4,13.6c-14.8,0-26.7-4.3-35.9-12.8C205,394.1,200.4,383.1,200.4,369.6z
			 M238.7,369.6c0,9.8,1,16.4,2.9,19.9c1.8,3.5,4.7,5.2,8.6,5.2c3.9,0,6.7-1.7,8.6-5c1.9-3.4,2.9-10.1,2.9-20.1
			c0-9.7-0.9-16.3-2.8-19.8c-1.8-3.5-4.7-5.2-8.7-5.2c-3.8,0-6.7,1.7-8.6,5C239.6,353,238.7,359.7,238.7,369.6z"/>
		<path class="st2" d="M346.9,414h-36.2v-21.1h7.7v-46h-7.7v-21.1h41.8l32.1,46.1v-25h-7.2v-21.1H413v21.1h-7.7v68.3h-29.1
			l-37.2-53.4v31.1h7.8V414z"/>
		<path class="st2" d="M428,346.9h-6.8v-21.1h45.2v21.1h-4.2v29.8c0,7.1,0.7,12,2,14.5c1.4,2.5,3.8,3.8,7.3,3.8c2.9,0,5-1.1,6.3-3.2
			c1.3-2.1,2-6.5,2-13v-31.9h-4.4v-21.1h33.2v21.1h-7v32c0,8.2-1.2,14.9-3.6,20.1c-2.4,5.2-6.3,9.2-11.8,12.1
			c-5.5,2.9-12.3,4.4-20.3,4.4c-6.5,0-12.2-0.8-17.2-2.3c-5.1-1.5-9.1-3.9-12.1-7c-3-3.1-5.1-6.8-6.5-11.2
			c-1.4-4.3-2.2-10.8-2.2-19.7V346.9z"/>
		<path class="st2" d="M537.9,414h-19.9v-28.3h19.9c2.4,7.7,6.8,11.6,13.4,11.6c4.7,0,7.1-1.9,7.1-5.7c0-2-0.8-3.6-2.5-5
			c-1.8-1.4-5.5-3.4-11.2-6c-7.2-3.3-12.5-6.1-15.9-8.4c-3.2-2.2-5.9-5.1-8.1-9c-2.2-3.8-3.4-7.9-3.4-12.5c0-8.2,2.7-14.6,8-19.2
			c5.3-4.6,11.8-6.9,19.6-6.9s14.3,2.2,19.7,6.6v-5.5h20v25.1h-19.7c-2.4-6.9-6.7-10.4-12.8-10.4c-4.3,0-6.5,1.8-6.5,5.5
			c0,1.8,0.6,3.1,1.8,4c1.2,0.9,5,3,11.5,6.2c8.7,4.3,14.5,7.5,17.4,9.5c1.5,1,3,2.3,4.5,4.1c1.5,1.8,2.8,3.6,3.8,5.4
			c2.3,4.1,3.5,8.6,3.5,13.5c0,7.4-2.8,13.7-8.3,18.8c-5.5,5.2-12.4,7.8-20.8,7.8c-7.8,0-14.8-2.3-21.1-6.9V414z"/>
		<path class="st2" d="M679.6,414h-48v-21.1h7.2v-46h-7.2v-21.1h48c4.3,0,8.3,0.1,12,0.2c3.7,0.1,6.8,0.4,9.5,0.6
			c2.6,0.3,5,0.6,7.2,1.1c6.2,1.3,11.2,4.2,15,8.6c3.9,4.5,5.8,9.8,5.8,15.9c0,4.6-1.2,8.7-3.6,12.4c-2.4,3.7-5.5,6.4-9.3,8.1
			l12.2,20.2h6.3V414H703L683.8,378h-10.9v14.9h6.7V414z M672.9,345.1v16.8h3.8c5,0,8.4-0.1,10.2-0.4c1.9-0.3,3.5-1.1,4.8-2.5
			c1.3-1.3,2-3.1,2-5.4s-0.7-4.1-2-5.5c-1.3-1.4-3-2.2-5-2.5c-1.9-0.3-5.5-0.4-10.7-0.4H672.9z"/>
		<path class="st2" d="M827.1,414h-84.2v-21.1h6.9v-46h-7v-21.1h84.4V354h-23.2v-7.1h-20.1v13.6h17.5v18h-17.5v14.5h20.1v-7.1h23.2
			V414z"/>
		<path class="st2" d="M894.3,414.8h-27.8l-24.9-67.9h-6.1v-21.1h45.8v21.1h-6.6l10.4,38l13.2-38h-6.5v-21.1h38.5v21.1h-6.5l13.4,38
			l10.5-38h-6.3v-21.1h35.6v21.1h-6.1l-25.1,67.9h-27.4l-11.9-34L894.3,414.8z"/>
		<path class="st2" d="M1010.5,414h-35v-21.1h6.7l16.6-46h-7.1v-21.1h63.5v21.1h-7.1l16.9,46h6.5V414h-46.1v-19.4h7.7l-3.4-11.1
			h-22.6l-3.9,11.1h7.2V414z M1018.8,348.1l-8.3,24.4h15.8L1018.8,348.1z"/>
		<path class="st2" d="M1126.5,414h-48v-21.1h7.2v-46h-7.2v-21.1h48c4.3,0,8.3,0.1,12,0.2c3.7,0.1,6.8,0.4,9.5,0.6
			c2.6,0.3,5,0.6,7.2,1.1c6.2,1.3,11.2,4.2,15,8.6c3.9,4.5,5.8,9.8,5.8,15.9c0,4.6-1.2,8.7-3.6,12.4c-2.4,3.7-5.5,6.4-9.3,8.1
			l12.2,20.2h6.3V414H1150l-19.2-36.1h-10.9v14.9h6.7V414z M1119.9,345.1v16.8h3.8c5,0,8.4-0.1,10.2-0.4c1.9-0.3,3.5-1.1,4.8-2.5
			c1.3-1.3,2-3.1,2-5.4s-0.7-4.1-2-5.5c-1.3-1.4-3-2.2-5-2.5c-1.9-0.3-5.5-0.4-10.7-0.4H1119.9z"/>
		<path class="st2" d="M1231.6,414h-41.1v-21.1h6.9v-46h-6.9v-21.1h42.3c9.6,0,17.5,0.6,23.6,1.8c6.1,1.2,11.9,3.6,17.3,7.3
			c5.4,3.7,9.6,8.8,12.7,15.1c1.5,3,2.7,6.3,3.5,9.8c0.8,3.5,1.2,7.1,1.2,10.9c0,7.7-1.6,14.6-4.9,20.9c-3.2,6.3-7.3,11.1-12.3,14.4
			c-4.8,3.3-10.1,5.5-15.9,6.5C1252.4,413.5,1243.6,414,1231.6,414z M1231.6,346.9v46h3.2c8,0,13.3-2.1,15.7-6.4
			c2.4-4.3,3.6-9.6,3.6-16.1c0-3.9-0.5-7.7-1.5-11.6c-1.1-3.8-2.9-6.7-5.6-8.8c-2.6-2.1-7.3-3.1-14.1-3.1H1231.6z"/>
	</g>
	<g>
		<path class="st3" d="M140.5,415h-50v-21.1h7.7v-46h-7.7v-21.1h54c10.6,0,18.8,0.6,24.6,1.8c5.7,1.3,10.2,3.8,13.5,7.6
			c3.3,3.9,4.9,8.3,4.9,13.5c0,5-1.5,9-4.6,11.9c-3.2,3-7,5.2-11.6,6.3c6.2,1.9,11,4.7,14.3,8.6c3.4,4,5.1,8.4,5.1,13.4
			c0,5.9-1.9,11-5.7,15.1c-3.8,4.1-9,6.8-15.7,8.1C162.7,414.4,153.1,415,140.5,415z M132.4,346.1v16.1h7.6c5.1,0,8.5-0.7,10.1-2.2
			c1.5-1.5,2.3-3.4,2.3-5.8c0-2.1-0.7-3.9-2.1-5.6s-5.2-2.5-11.5-2.5H132.4z M132.4,378.3v17.4h7.7c4.9,0,8.4-0.6,10.6-1.9
			c2.1-1.3,3.2-3.5,3.2-6.7c0-3-1-5.2-2.9-6.7c-1.9-1.4-5.6-2.1-11-2.1H132.4z"/>
		<path class="st3" d="M202.4,370.6c0-7.4,1.8-14.5,5.4-21.4c3.6-6.9,9.1-12.6,16.6-17.3c2.7-1.7,5.4-3,8.2-3.9
			c2.8-1,5.9-1.7,9.2-2.3c3.3-0.5,6.8-0.8,10.4-0.8c15.8,0,28.1,4.6,36.8,13.9c4.3,4.6,7.6,9.5,9.8,14.9c2.2,5.3,3.3,11,3.3,16.9
			c0,12.3-4.5,23-13.5,32.1c-9,9.1-21.1,13.6-36.4,13.6c-14.8,0-26.7-4.3-35.9-12.8C207,395.1,202.4,384.1,202.4,370.6z
			 M240.7,370.6c0,9.8,1,16.4,2.9,19.9c1.8,3.5,4.7,5.2,8.6,5.2c3.9,0,6.7-1.7,8.6-5c1.9-3.4,2.9-10.1,2.9-20.1
			c0-9.7-0.9-16.3-2.8-19.8c-1.8-3.5-4.7-5.2-8.7-5.2c-3.8,0-6.7,1.7-8.6,5C241.6,354,240.7,360.7,240.7,370.6z"/>
		<path class="st3" d="M348.9,415h-36.2v-21.1h7.7v-46h-7.7v-21.1h41.8l32.1,46.1v-25h-7.2v-21.1H415v21.1h-7.7v68.3h-29.1
			l-37.2-53.4v31.1h7.8V415z"/>
		<path class="st3" d="M430,347.9h-6.8v-21.1h45.2v21.1h-4.2v29.8c0,7.1,0.7,12,2,14.5c1.4,2.5,3.8,3.8,7.3,3.8c2.9,0,5-1.1,6.3-3.2
			c1.3-2.1,2-6.5,2-13v-31.9h-4.4v-21.1h33.2v21.1h-7v32c0,8.2-1.2,14.9-3.6,20.1c-2.4,5.2-6.3,9.2-11.8,12.1
			c-5.5,2.9-12.3,4.4-20.3,4.4c-6.5,0-12.2-0.8-17.2-2.3c-5.1-1.5-9.1-3.9-12.1-7c-3-3.1-5.1-6.8-6.5-11.2
			c-1.4-4.3-2.2-10.8-2.2-19.7V347.9z"/>
		<path class="st3" d="M539.9,415h-19.9v-28.3h19.9c2.4,7.7,6.8,11.6,13.4,11.6c4.7,0,7.1-1.9,7.1-5.7c0-2-0.8-3.6-2.5-5
			c-1.8-1.4-5.5-3.4-11.2-6c-7.2-3.3-12.5-6.1-15.9-8.4c-3.2-2.2-5.9-5.1-8.1-9c-2.2-3.8-3.4-7.9-3.4-12.5c0-8.2,2.7-14.6,8-19.2
			c5.3-4.6,11.8-6.9,19.6-6.9s14.3,2.2,19.7,6.6v-5.5h20v25.1h-19.7c-2.4-6.9-6.7-10.4-12.8-10.4c-4.3,0-6.5,1.8-6.5,5.5
			c0,1.8,0.6,3.1,1.8,4c1.2,0.9,5,3,11.5,6.2c8.7,4.3,14.5,7.5,17.4,9.5c1.5,1,3,2.3,4.5,4.1c1.5,1.8,2.8,3.6,3.8,5.4
			c2.3,4.1,3.5,8.6,3.5,13.5c0,7.4-2.8,13.7-8.3,18.8c-5.5,5.2-12.4,7.8-20.8,7.8c-7.8,0-14.8-2.3-21.1-6.9V415z"/>
		<path class="st3" d="M681.6,415h-48v-21.1h7.2v-46h-7.2v-21.1h48c4.3,0,8.3,0.1,12,0.2c3.7,0.1,6.8,0.4,9.5,0.6
			c2.6,0.3,5,0.6,7.2,1.1c6.2,1.3,11.2,4.2,15,8.6c3.9,4.5,5.8,9.8,5.8,15.9c0,4.6-1.2,8.7-3.6,12.4c-2.4,3.7-5.5,6.4-9.3,8.1
			l12.2,20.2h6.3V415H705L685.8,379h-10.9v14.9h6.7V415z M674.9,346.1v16.8h3.8c5,0,8.4-0.1,10.2-0.4c1.9-0.3,3.5-1.1,4.8-2.5
			c1.3-1.3,2-3.1,2-5.4s-0.7-4.1-2-5.5c-1.3-1.4-3-2.2-5-2.5c-1.9-0.3-5.5-0.4-10.7-0.4H674.9z"/>
		<path class="st3" d="M829.1,415h-84.2v-21.1h6.9v-46h-7v-21.1h84.4V355h-23.2v-7.1h-20.1v13.6h17.5v18h-17.5v14.5h20.1v-7.1h23.2
			V415z"/>
		<path class="st3" d="M896.3,415.8h-27.8l-24.9-67.9h-6.1v-21.1h45.8v21.1h-6.6l10.4,38l13.2-38h-6.5v-21.1h38.5v21.1h-6.5l13.4,38
			l10.5-38h-6.3v-21.1h35.6v21.1h-6.1l-25.1,67.9h-27.4l-11.9-34L896.3,415.8z"/>
		<path class="st3" d="M1012.5,415h-35v-21.1h6.7l16.6-46h-7.1v-21.1h63.5v21.1h-7.1l16.9,46h6.5V415h-46.1v-19.4h7.7l-3.4-11.1
			h-22.6l-3.9,11.1h7.2V415z M1020.8,349.1l-8.3,24.4h15.8L1020.8,349.1z"/>
		<path class="st3" d="M1128.5,415h-48v-21.1h7.2v-46h-7.2v-21.1h48c4.3,0,8.3,0.1,12,0.2c3.7,0.1,6.8,0.4,9.5,0.6
			c2.6,0.3,5,0.6,7.2,1.1c6.2,1.3,11.2,4.2,15,8.6c3.9,4.5,5.8,9.8,5.8,15.9c0,4.6-1.2,8.7-3.6,12.4c-2.4,3.7-5.5,6.4-9.3,8.1
			l12.2,20.2h6.3V415H1152l-19.2-36.1h-10.9v14.9h6.7V415z M1121.9,346.1v16.8h3.8c5,0,8.4-0.1,10.2-0.4c1.9-0.3,3.5-1.1,4.8-2.5
			c1.3-1.3,2-3.1,2-5.4s-0.7-4.1-2-5.5c-1.3-1.4-3-2.2-5-2.5c-1.9-0.3-5.5-0.4-10.7-0.4H1121.9z"/>
		<path class="st3" d="M1233.6,415h-41.1v-21.1h6.9v-46h-6.9v-21.1h42.3c9.6,0,17.5,0.6,23.6,1.8c6.1,1.2,11.9,3.6,17.3,7.3
			c5.4,3.7,9.6,8.8,12.7,15.1c1.5,3,2.7,6.3,3.5,9.8c0.8,3.5,1.2,7.1,1.2,10.9c0,7.7-1.6,14.6-4.9,20.9c-3.2,6.3-7.3,11.1-12.3,14.4
			c-4.8,3.3-10.1,5.5-15.9,6.5C1254.4,414.5,1245.6,415,1233.6,415z M1233.6,347.9v46h3.2c8,0,13.3-2.1,15.7-6.4
			c2.4-4.3,3.6-9.6,3.6-16.1c0-3.9-0.5-7.7-1.5-11.6c-1.1-3.8-2.9-6.7-5.6-8.8c-2.6-2.1-7.3-3.1-14.1-3.1H1233.6z"/>
	</g>
</g>
</svg>
