<svg id="Layer_1_Image" data-name="Layer 1 Image" xmlns="http://www.w3.org/2000/svg" viewBox="0 0 985.2 150.24"><defs><style>.cls-1{fill:#1f4221}.cls-2{fill:#204322}.cls-4{fill:#fefefe}.cls-6{fill:#1e4120}</style></defs><path class="cls-1" d="M475.8.48a2.16 2.16 0 00.39.22c2.65.71 4 2.11 4.17 4.85.17 2.18.1 4.39.13 6.58v1.4h4.78c3 0 6-.07 9 .11 3.56.2 5.4 2 5.47 5.53.14 6.46.08 12.94 0 19.4a6.14 6.14 0 01-2.5 4.83c-4.11 3.36-8.17 6.78-12.43 10.33l2.38.66c4.39 1.26 8.47 3.11 11.72 6.43a20.54 20.54 0 015.85 14c.26 7.45.32 14.93 0 22.37a22.29 22.29 0 01-8.35 16.81c-5.07 4.21-10.15 8.41-15.19 12.65a2.52 2.52 0 00-.82 1.56 6.39 6.39 0 01-2.31 4.55q-9.34 7.69-18.62 15.46a6.06 6.06 0 01-4 1.31h-20.63a17.2 17.2 0 01-2.86-.27 5 5 0 01-4.37-4.82c-.12-1.31-.11-2.63-.13-3.95s0-2.63 0-4.13h-19.43c-3.48-.2-5.56-2.1-5.62-5.59-.12-6.34-.07-12.69 0-19a6.17 6.17 0 012.43-4.86c4.62-3.82 9.18-7.7 13.91-11.68l-1.47-.54c-9.06-3.21-14.11-9.68-14.61-19.18a225.8 225.8 0 010-23.56 21.94 21.94 0 018.16-16q7.78-6.57 15.58-13.12a2.78 2.78 0 001.15-2 5.42 5.42 0 012.12-3.62c6-5 12-10.13 18.11-15.14a16.86 16.86 0 013-1.58zm3.32 118.68c3.05-.78 6-1.28 8.72-2.26 9.44-3.4 14.74-10.14 15.52-20.17.31-4 .25-8 .21-12.08a108.68 108.68 0 00-.48-11.7 18.34 18.34 0 00-8-13.54c-4.34-3-9.3-4.22-14.4-5-7.17-1-14.37-1.94-21.55-2.91-2.44-.33-3.82-2.2-3.64-4.89s1.59-4 4.2-4h33.96c2.94-.09 4.66-1.69 4.68-4.47q.06-9.4 0-18.81a3.88 3.88 0 00-3.93-4.24c-3.15-.2-6.31-.17-9.46-.21h-5.62c-.13-.15-.17-.18-.17-.21V7.12c-.09-3.35-1.6-5.12-4.82-5.12q-10.92-.12-21.84 0c-3.26 0-4.76 1.71-4.77 5v8.19c-2.21.41-4.26.69-6.26 1.18a25.39 25.39 0 00-12.7 6.93 22.61 22.61 0 00-6.14 15.63c-.15 6.74-.14 13.49.2 20.22.47 9.15 5.09 15.54 13.88 18.46a70 70 0 0011 2.42c6.05 1 12.15 1.65 18.22 2.55a6.59 6.59 0 013.49 1.25c1.6 1.54 1.51 3.68.83 5.69-.6 1.79-2.12 2.23-3.81 2.3h-39.2a4.08 4.08 0 00-4.41 3.38 11.83 11.83 0 00-.14 2.15v16.17a10.67 10.67 0 00.19 2.26c.48 2.21 2.11 3.33 4.84 3.34h20.04c0 2.84-.06 5.51 0 8.18.08 3 1.62 4.72 4.4 4.74 7.68.06 15.36 0 23 0a3.65 3.65 0 003.68-3.25 19.27 19.27 0 00.21-2.62c.09-2.42.07-4.81.07-7.01zm505.6-18.04c-.23 1.07-.45 2.14-.71 3.2a18.73 18.73 0 01-6.31 10.33c-4.93 4.13-9.9 8.2-14.77 12.39a26.66 26.66 0 01-15.4 6.18c-2.06.19-4.14.23-6.22.24h-35.74a11.37 11.37 0 01-2-.14c-2.4-.45-3.72-1.83-3.76-4.25-.08-5.39 0-10.78 0-16.17a4.48 4.48 0 011.79-3.5q5.29-4.41 10.55-8.85l1.12-1c-1.06-.43-2-.8-3-1.23a16.1 16.1 0 01-10.13-14c-.47-5.35-.25-10.76-.35-16.14a27.58 27.58 0 011-8.53 19.13 19.13 0 016.11-9.38c4.9-4.1 9.83-8.17 14.67-12.33a25.2 25.2 0 0113.79-5.82 65 65 0 017.64-.44c10.4-.05 20.79 0 31.19 0h.84c3.83.11 5.4 1.58 5.46 5.39.07 5 0 10.06 0 15.09a5 5 0 01-2 4c-3 2.47-6 5-9 7.49l-1.18 1c2.29.87 4.58 1.56 6.72 2.59 5.73 2.76 8.64 7.56 9.53 13.72a3.2 3.2 0 00.26.71zm-44 18h19a32.71 32.71 0 0011.12-1.91c7.42-2.73 12.16-9 12.4-16.78q.28-9 0-17.94a15.88 15.88 0 00-4.65-11 18.46 18.46 0 00-10.09-5.06c-7.1-1.21-14.24-2.14-21.38-3.13a3.79 3.79 0 01-3.29-5.17c.51-1.65 1.55-2.3 3.72-2.3h27.71c2.29 0 3.65-.92 3.72-3.13.17-5.46.18-10.93 0-16.38-.06-2.21-1.06-3-3.22-3.31a10.32 10.32 0 00-1.66-.13h-32.87a38.16 38.16 0 00-10.5 1.39c-8.41 2.44-13.54 8.54-14.15 17.2-.26 3.69-.23 7.41-.2 11.12a78.2 78.2 0 00.46 8.93 15 15 0 005.52 10.12c3.73 3 8.2 4.13 12.79 4.81 6 .89 12 1.63 18 2.46a3 3 0 012.5 1.61c1.59 3.21-.15 6-3.7 6h-31.18c-3.16 0-4.38 1.22-4.39 4.43v13.53c0 3.26 1.32 4.55 4.59 4.55z"/><path class="cls-2" d="M349 94.88V50.73a6.91 6.91 0 012.78-6c4.63-3.68 9.12-7.52 13.6-11.38a6.82 6.82 0 014.59-1.71h18.36c3.81 0 5.25 1.45 5.49 5.23 0 .68.08 1.36.08 2v56.3a32.53 32.53 0 01-1.51 11.21 19 19 0 01-5.81 8.33q-7.71 6.39-15.38 12.8c-4.26 3.58-9.32 5.38-14.68 6.31a86.68 86.68 0 01-31.1 0 35.58 35.58 0 01-11.53-4.18 23.11 23.11 0 01-11.5-17.18 45.79 45.79 0 01-.52-7c0-18.18 0-36.35-.06-54.52a7.23 7.23 0 012.88-6.18c4.58-3.66 9-7.5 13.47-11.34a7 7 0 014.79-1.84h18.72c3.9 0 5.53 1.74 5.53 5.6V91.1a6.35 6.35 0 00.3 2.22 7.16 7.16 0 001.16 1.63zM318.64 67.8v13.06c.06 6.7 0 13.41.3 20.1a17.38 17.38 0 004.65 11c3.35 3.68 7.67 5.64 12.35 6.86 8.34 2.17 16.85 2.41 25.41 2a64.19 64.19 0 0015.88-2.47c10.28-3.15 15.51-10.12 15.53-20.83q.06-29.64 0-59.29a12.25 12.25 0 00-.35-2.69 3 3 0 00-2.73-2.46 15.68 15.68 0 00-2.26-.2h-16.43a15.7 15.7 0 00-2.38.2 3 3 0 00-2.69 2.78 15.13 15.13 0 00-.11 1.9v53.67c0 3.24-1.1 4.67-4.23 5.39a27.71 27.71 0 01-10.81.16c-3.57-.6-4.79-2.22-4.79-5.83V37.36c0-3.14-1.13-4.43-4.25-4.47-6.28-.07-12.56-.08-18.84 0-3.12 0-4.26 1.35-4.26 4.48zm339.52 27.31V51.02a7.36 7.36 0 013-6.39c4.57-3.62 9-7.42 13.42-11.22a6.88 6.88 0 014.7-1.74h18a13.33 13.33 0 011.55.15 4.25 4.25 0 014 4.17c.06.63.06 1.27.06 1.91v58.34a28.06 28.06 0 01-2.18 11.9 17.69 17.69 0 01-4.78 6.36q-7.95 6.63-15.93 13.25a29.18 29.18 0 01-13.9 6c-11.23 2-22.48 2.26-33.67-.31a29.06 29.06 0 01-14-7.17c-4.71-4.53-6.69-10.27-7.23-16.61-.13-1.55-.14-3.11-.14-4.67V50.73a6.59 6.59 0 012.53-5.62c4.87-4 9.61-8.05 14.39-12.11a6.26 6.26 0 014.24-1.34h18.6a10.74 10.74 0 011.78.18 4.13 4.13 0 013.7 3.8 21.09 21.09 0 01.13 2.38v53.43a3.71 3.71 0 001.73 3.66zm-30.46-27.5v27.55c0 1.63.1 3.26.22 4.89.65 8.57 5.13 14.28 13.07 17.43 6.67 2.63 13.67 3.28 20.72 3.44 4.3.09 8.62-.16 12.92-.42a45.55 45.55 0 0013.83-2.92c6.19-2.42 10.83-6.43 12.43-13.12a37.48 37.48 0 001-8.38c.08-19.16 0-38.33 0-57.49 0-.52 0-1-.09-1.55-.28-3-1.25-4.09-4.17-4.13q-9.28-.16-18.59 0C676 33 675 34.18 675 37.34v53.9c0 3.42-1.08 4.84-4.45 5.61a26.73 26.73 0 01-10.69.11c-3.61-.64-4.69-2.15-4.69-5.86V37.19c-.15-3.08-1.25-4.26-4.35-4.3q-9.36-.11-18.71 0c-3.14 0-4.36 1.39-4.37 4.53v30.19zm-383.16 43.3v4.38a5.27 5.27 0 01-2.06 4.36q-7.43 6.15-14.78 12.35a5.72 5.72 0 01-3.83 1.43h-18.59c-3.35 0-5-1.68-5.13-5V51.44a21.53 21.53 0 01.08-2.27 5.17 5.17 0 011.95-3.57q7.26-6.06 14.46-12.21a6.09 6.09 0 014-1.67c4.79 0 9.59 0 14.38.06a9.06 9.06 0 016.7 3.52c2.75 3.15 5.49 6.31 8.29 9.54l8.38-7c1.74-1.46 3.54-2.87 5.21-4.41a6.67 6.67 0 014.7-1.73h17.87c3.92 0 5.53 1.7 5.53 5.58v77.5a6.14 6.14 0 01-2.42 5.17c-4.94 4-9.8 8.08-14.65 12.17a5.6 5.6 0 01-3.73 1.36h-18.59c-3.43 0-5.13-1.79-5.14-5.23 0-4.19-.17-8.4.06-12.58.1-2.31-1.42-3.36-2.69-4.76zm19.3-48.31a2 2 0 01-.42-.3l-10.26-11.69c-4.23-4.83-8.48-9.65-12.7-14.5a8.38 8.38 0 00-6.82-3.06c-4.32.07-8.64 0-13 0-2.65 0-4 1.3-4 4v78.22c0 2.63 1.33 4 4 4q9.23.06 18.47 0c2.86 0 4.19-1.46 4.19-4.33V75.33c.37.41.54.58.69.76 6.25 7.56 12.49 15.14 18.79 22.67a4.32 4.32 0 011.09 3c0 4.71 0 9.42.09 14.13a3 3 0 003.2 3.17c6.39.08 12.79.15 19.18.07 3 0 4.08-1.31 4.08-4.36V37.28c0-3.05-1.16-4.34-4.23-4.38q-9-.12-18.11 0c-3.05 0-4.17 1.32-4.23 4.39v1.32z"/><path class="cls-1" d="M845.55 47.57c2.93-2.49 5.83-5 8.75-7.45 2.43-2.07 4.94-4.06 7.3-6.21a8.5 8.5 0 016-2.24h18.24c4.3 0 5.56 2 3.83 5.88Q884.22 50 878.75 62.38c-.18.39-.31.8-.49 1.26a15.85 15.85 0 0110.62 6A16.89 16.89 0 01892.32 80c.06 11.7 0 23.4 0 35.1a5.38 5.38 0 01-2.12 4.45c-5 4.07-9.91 8.2-14.83 12.34a5.7 5.7 0 01-3.83 1.43h-19.07c-3.31 0-4.87-1.43-5.12-4.72-.15-2-.09-4.07-.09-6.1v-18a2.51 2.51 0 00-1.73-2.72v13.33a5.42 5.42 0 01-2.07 4.48c-5.09 4.18-10.1 8.47-15.24 12.59a6 6 0 01-3.4 1.18c-6.44.11-12.88.09-19.32 0-3.36 0-5.08-1.79-5.08-5.15V49.86a5.38 5.38 0 012-4.39c4.82-4 9.64-8 14.38-12.13a6.87 6.87 0 014.7-1.75h18.47c4 0 5.53 1.69 5.53 5.7zm-1.24 39.94a5.15 5.15 0 01.56-.06h15.59a3.73 3.73 0 01.94.12c1.77.49 2.53 1.68 2.53 4.08v19c0 1.76 0 3.51.11 5.26a3.13 3.13 0 003.15 3.12c1.27.08 2.55.1 3.83.1 5.55 0 11.11 0 16.66-.11a3.08 3.08 0 003.17-2.56 12.53 12.53 0 00.23-2.37v-10.3c-.06-8.42.07-16.85-.27-25.25a13.93 13.93 0 00-9.76-12.89 45.41 45.41 0 00-4.74-1.1c.1-.25.21-.51.33-.76q5.87-13.47 11.72-26.94a4.72 4.72 0 00.44-2.17c-.09-1.23-1.2-1.89-2.89-1.89H867.1a5.48 5.48 0 00-5.49 3.45c-1.17 2.65-2.37 5.28-3.55 7.92-2.89 6.53-5.77 13.06-8.69 19.58-.18.39-.64.89-1 .91-1.38.11-2.77 0-4.25 0V37.34c0-3.13-1.14-4.42-4.27-4.45q-9.3-.11-18.59 0c-3.13 0-4.25 1.32-4.25 4.48v78c0 2.3 1.18 3.63 3.44 3.73 2.55.11 5.11.11 7.66.11 4.08 0 8.16 0 12.23-.09 2.76-.09 3.62-1.06 3.95-3.79a11.75 11.75 0 000-1.19V87.51z"/><path class="cls-2" d="M756.9 70.25v1.4c0 5.79.07 11.58 0 17.37-.06 3.64.3 6 6.19 6.06h23.39c4.83 0 6.27 1.44 6.27 6.3v13.06a6.56 6.56 0 01-2.58 5.6c-4.9 3.91-9.69 8-14.49 12a5.56 5.56 0 01-3.71 1.41c-10.64 0-21.28.07-31.91-.07a32.57 32.57 0 01-14.66-3.51c-7.52-3.9-11.56-10.31-13-18.46a45.8 45.8 0 01-.6-7.5q-.09-17.19 0-34.38a27.28 27.28 0 012.72-12.38 19.61 19.61 0 014.93-6.25c5-4.24 10.12-8.45 15.14-12.72a26 26 0 0114.07-5.8 96.1 96.1 0 0110.86-.69c9-.1 18 0 27 0 4.71 0 6.23 1.53 6.23 6.26v13.41a6.44 6.44 0 01-2.55 5.5c-4.79 3.85-9.5 7.82-14.19 11.79a6.46 6.46 0 01-4.48 1.64c-4.4-.06-8.8 0-13.2 0zm-28.53 5.85v17.85a52.83 52.83 0 00.32 5.48c1 9 5.8 15 14.5 17.78a47.4 47.4 0 0014.48 2h28.67c.4 0 .8 0 1.2-.05 2.83-.25 3.91-1.3 4-4.17.06-4.83.07-9.67 0-14.5 0-3-1.38-4.13-4.35-4.13h-24.23a14.75 14.75 0 01-3.42-.47 4.64 4.64 0 01-3.69-4.78V61.52a4.79 4.79 0 013.86-4.93 13.67 13.67 0 013.3-.45h24.35c2.61 0 4-.94 4-3.48.16-5.57 0-11.16-.06-16.74a2.87 2.87 0 00-2.44-2.73 9 9 0 00-2.26-.24c-9.67 0-19.35-.06-29 0a49.33 49.33 0 00-13.24 1.63c-6.68 1.9-11.81 5.6-14.3 12.35a31 31 0 00-1.67 10.79c-.03 6.08-.02 12.28-.02 18.38zM79.83 69a53.57 53.57 0 016.28 3.31c3.68 2.62 5.28 6.59 5.73 10.9a101.94 101.94 0 010 21 16.21 16.21 0 01-6 11.21c-5.08 4.19-10.09 8.48-15.11 12.74a21.87 21.87 0 01-12 4.84 63.92 63.92 0 01-7 .38H6.27a10.56 10.56 0 01-2-.15 3.76 3.76 0 01-3.2-3 10.83 10.83 0 01-.26-2.48V50.61a6.5 6.5 0 012.57-5.47C8 41.28 12.6 37.35 17.19 33.37a6.87 6.87 0 014.71-1.69c12.92 0 25.83-.05 38.74 0a38.34 38.34 0 0111.7 1.63c6.42 2.1 10.66 6.32 11.4 13.09a90.14 90.14 0 01.12 14.79c-.19 3.38-1.64 5.45-4.03 7.81zm-3.57.84A10.85 10.85 0 0082.75 60a93.44 93.44 0 000-12.41 14.1 14.1 0 00-8.79-12.39 30.44 30.44 0 00-12.46-2.37c-11.39-.05-22.79 0-34.18 0h-5.76c-2.6 0-3.8 1.11-4 3.67a9.46 9.46 0 00-.06 1.07v76.78a8.49 8.49 0 00.2 2.14c.44 1.77 1.8 2.58 4.19 2.58h46.06a54.32 54.32 0 008.44-.72c9.14-1.48 14.53-7.85 14.62-17.09 0-4.11.13-8.22.06-12.33a41 41 0 00-.59-6.64c-1-5.38-3.82-9.38-9.2-11.18-1.64-.55-3.28-.85-5.02-1.28z"/><path class="cls-1" d="M591.31 69.23c.75.22 1.35.39 2 .58 5.81 1.92 9 6.08 10.15 11.93a37.22 37.22 0 01.62 6.41c.07 4.59.09 9.19-.09 13.77-.22 5.62-2.24 10.4-6.81 14-4.89 3.91-9.62 8-14.39 12.11A21.84 21.84 0 01570.6 133a65.45 65.45 0 01-7.41.39h-45.1a11.7 11.7 0 01-1.67-.1 3.87 3.87 0 01-3.69-3.46 12.69 12.69 0 01-.21-2.38V50.91a6.92 6.92 0 012.71-5.91c4.67-3.75 9.21-7.65 13.74-11.57a6.94 6.94 0 014.71-1.74h38.86a36.73 36.73 0 0112.25 1.85c6 2.14 9.75 6.25 10.79 12.57a52.79 52.79 0 01.1 15.27 11.66 11.66 0 01-4.37 7.85zm-3.07.57a10.29 10.29 0 006.24-8.25 47.59 47.59 0 00-.18-16.06 13.84 13.84 0 00-7.8-10 26.48 26.48 0 00-11.67-2.6c-13.91-.11-27.83-.07-41.74-.06-2.23 0-3.49 1.25-3.73 3.53a13.58 13.58 0 000 1.43v76.3a13 13 0 00.22 2.24 2.88 2.88 0 002.51 2.51 10 10 0 001.89.21c15.31 0 30.62.05 45.93 0a53 53 0 008.44-.73c8.22-1.34 13.37-6.32 14.28-14.54a82 82 0 00-.19-21.23c-.79-5.22-3.5-9.28-8.66-11.23a56.42 56.42 0 00-5.54-1.52z"/><path d="M190.79 76v20.72c0 7.91-2.47 14.54-9 19.48-4.2 3.17-8.21 6.61-12.13 10.13a31.68 31.68 0 01-16.15 7.54 87.7 87.7 0 01-31.45 0 34.1 34.1 0 01-13-5.11c-6.44-4.35-9.57-10.62-10.36-18.17a61.36 61.36 0 01-.25-6.22v-36.4c0-5.2 1-10.17 4.21-14.44a18.74 18.74 0 012.84-3.06c5.22-4.41 10.49-8.75 15.73-13.13a29.19 29.19 0 0114.23-6.14 92.3 92.3 0 0136.87.67 34 34 0 017.79 3c6.36 3.28 9.63 8.75 10.43 15.75a52.23 52.23 0 01.29 5.73c-.02 6.57-.05 13.11-.05 19.65zm-1.24.16h.12c-.12-8.3 0-16.61-.44-24.89a17.53 17.53 0 00-9.08-14.72c-6.05-3.59-12.8-4.73-19.66-5.1-5.21-.28-10.45-.19-15.68 0a48.72 48.72 0 00-16.09 3.09c-6 2.31-10.46 6.14-12.46 12.45a29.44 29.44 0 00-1.17 9v38.69a59.79 59.79 0 00.33 6.56 18.3 18.3 0 009.38 14.56 34.06 34.06 0 0010.84 3.83 93.7 93.7 0 0021.93 1.3 63.82 63.82 0 0016.36-2.51c4.84-1.53 9.17-3.85 12.13-8.18a20.91 20.91 0 003.45-11.84c.1-7.46.04-14.85.04-22.23z" fill="#204222"/><path class="cls-4" d="M479.12 119.16v7a19.27 19.27 0 01-.21 2.62 3.65 3.65 0 01-3.68 3.25c-7.68 0-15.36.05-23 0-2.78 0-4.32-1.71-4.4-4.74-.08-2.67 0-5.34 0-8.18h-20.04c-2.73 0-4.36-1.13-4.84-3.34a10.67 10.67 0 01-.19-2.26V97.34a11.83 11.83 0 01.14-2.15 4.08 4.08 0 014.41-3.38h39.23c1.69-.07 3.21-.51 3.81-2.3.68-2 .77-4.15-.83-5.69a6.59 6.59 0 00-3.52-1.29c-6.07-.9-12.17-1.58-18.22-2.55a70 70 0 01-11-2.42c-8.79-2.92-13.41-9.31-13.88-18.46-.34-6.73-.35-13.48-.2-20.22a22.61 22.61 0 016.14-15.63 25.39 25.39 0 0112.7-6.93c2-.49 4-.77 6.26-1.18V7c0-3.26 1.51-4.94 4.77-5q10.92-.1 21.84 0c3.22 0 4.73 1.78 4.78 5.15v7.55s0 .06.17.21h5.62c3.15 0 6.31 0 9.46.21a3.88 3.88 0 013.93 4.24q.07 9.41 0 18.81c0 2.78-1.74 4.38-4.68 4.47H459.7c-2.61 0-4 1.35-4.2 4s1.2 4.56 3.64 4.89c7.18 1 14.38 1.86 21.55 2.91 5.1.75 10.06 2 14.4 5a18.34 18.34 0 018 13.54 108.68 108.68 0 01.48 11.7c0 4 .1 8.07-.21 12.08-.78 10-6.08 16.77-15.52 20.17-2.75.95-5.67 1.45-8.72 2.23z"/><path d="M940.76 119.08H921c-3.27 0-4.58-1.29-4.59-4.55V101c0-3.21 1.23-4.43 4.39-4.43H952c3.55 0 5.29-2.83 3.7-6a3 3 0 00-2.5-1.61c-6-.83-12-1.57-18-2.46-4.59-.68-9.06-1.8-12.79-4.81a15 15 0 01-5.52-10.12 78.2 78.2 0 01-.46-8.93c0-3.71-.06-7.43.2-11.12.61-8.66 5.74-14.76 14.15-17.2a38.16 38.16 0 0110.5-1.39h32.87a10.32 10.32 0 011.66.13c2.16.34 3.16 1.1 3.22 3.31.14 5.45.13 10.92 0 16.38-.07 2.21-1.43 3.13-3.72 3.13h-27.78c-2.17 0-3.21.65-3.72 2.3a3.79 3.79 0 003.29 5.17c7.14 1 14.28 1.92 21.38 3.13a18.46 18.46 0 0110.09 5.06 15.88 15.88 0 014.65 11q.31 9 0 17.94c-.24 7.83-5 14.05-12.4 16.78a32.71 32.71 0 01-11.12 1.91c-6.3-.06-12.62-.09-18.94-.09z" fill="#fdfefd"/><path class="cls-4" d="M318.64 67.8V37.38c0-3.13 1.14-4.44 4.26-4.48 6.28-.09 12.56-.08 18.84 0 3.12 0 4.25 1.33 4.25 4.47v53.79c0 3.61 1.22 5.23 4.79 5.83a27.71 27.71 0 0010.81-.16c3.13-.72 4.23-2.15 4.23-5.39V37.76a15.13 15.13 0 01.11-1.9 3 3 0 012.69-2.78 15.7 15.7 0 012.38-.2h16.43a15.68 15.68 0 012.26.2 3 3 0 012.73 2.46 12.25 12.25 0 01.35 2.69v59.29c0 10.71-5.25 17.68-15.53 20.83a64.19 64.19 0 01-15.88 2.47c-8.56.41-17.07.17-25.41-2-4.68-1.22-9-3.18-12.35-6.86A17.38 17.38 0 01319 101c-.31-6.69-.24-13.4-.3-20.1-.09-4.39-.06-8.74-.06-13.1zm309.06-.19V37.42c0-3.14 1.23-4.5 4.37-4.53q9.36-.09 18.71 0c3.1 0 4.2 1.22 4.35 4.3V91.1c0 3.71 1.08 5.22 4.69 5.86a26.73 26.73 0 0010.69-.11c3.37-.77 4.45-2.19 4.45-5.61v-53.9c0-3.16 1-4.39 4.11-4.44q9.3-.15 18.59 0c2.92 0 3.89 1.16 4.17 4.13 0 .51.09 1 .09 1.55v57.49a37.48 37.48 0 01-1 8.38c-1.6 6.69-6.24 10.7-12.43 13.12a45.55 45.55 0 01-13.83 2.92c-4.3.26-8.62.51-12.92.42-7.05-.16-14.05-.81-20.72-3.44-7.94-3.15-12.42-8.86-13.07-17.43-.12-1.63-.22-3.26-.22-4.89q-.05-13.76-.03-27.54zM263.84 62.6V37.28c.06-3.07 1.18-4.36 4.23-4.39q9.06-.12 18.11 0c3.07 0 4.23 1.33 4.23 4.38v77.5c0 3-1 4.32-4.08 4.36-6.39.08-12.79 0-19.18-.07a3 3 0 01-3.2-3.17c-.11-4.71-.12-9.42-.09-14.13a4.32 4.32 0 00-1.09-3c-6.3-7.53-12.54-15.11-18.79-22.67-.15-.18-.32-.35-.69-.76v39.61c0 2.87-1.33 4.31-4.19 4.33q-9.24.08-18.47 0c-2.63 0-4-1.4-4-4V37.05c0-2.65 1.35-3.94 4-4h13a8.38 8.38 0 016.82 3.06c4.22 4.85 8.47 9.67 12.7 14.5l10.27 11.69a2 2 0 00.42.3zm580.47 24.91v26.6a11.75 11.75 0 010 1.19c-.33 2.73-1.19 3.7-3.95 3.79-4.07.14-8.15.09-12.23.09-2.55 0-5.11 0-7.66-.11-2.26-.1-3.43-1.43-3.44-3.73v-78c0-3.16 1.12-4.44 4.25-4.48q9.3-.11 18.59 0c3.13 0 4.27 1.32 4.27 4.45v27.4c1.48 0 2.87.06 4.25 0 .37 0 .83-.52 1-.91 2.92-6.52 5.8-13.05 8.69-19.58 1.18-2.64 2.38-5.27 3.55-7.92a5.48 5.48 0 015.49-3.45h18.83c1.69 0 2.8.66 2.89 1.89a4.72 4.72 0 01-.44 2.17q-5.83 13.49-11.72 26.94c-.12.25-.23.51-.33.76a45.41 45.41 0 014.74 1.1 13.93 13.93 0 019.76 12.89c.34 8.4.21 16.83.27 25.25v10.3a12.53 12.53 0 01-.23 2.37 3.08 3.08 0 01-3.17 2.56c-5.55.08-11.11.09-16.66.11-1.28 0-2.56 0-3.83-.1a3.13 3.13 0 01-3.15-3.12c-.12-1.75-.11-3.5-.11-5.26v-19c0-2.4-.76-3.59-2.53-4.08a3.73 3.73 0 00-.94-.12h-15.63a5.15 5.15 0 00-.56 0zM728.37 76.1V57.66a31 31 0 011.67-10.79c2.49-6.75 7.62-10.45 14.3-12.35a49.33 49.33 0 0113.24-1.63c9.67-.07 19.35 0 29 0a9 9 0 012.26.24 2.87 2.87 0 012.44 2.73c.09 5.58.22 11.17.06 16.74-.06 2.54-1.44 3.48-4 3.48h-24.35a13.67 13.67 0 00-3.3.45 4.79 4.79 0 00-3.86 4.93v29.59a4.64 4.64 0 003.69 4.78 14.75 14.75 0 003.42.47h24.23c3 0 4.3 1.17 4.35 4.13.08 4.83.07 9.67 0 14.5 0 2.87-1.12 3.92-4 4.17-.4 0-.8.05-1.2.05h-28.67a47.4 47.4 0 01-14.48-2c-8.7-2.81-13.47-8.78-14.5-17.78a52.83 52.83 0 01-.32-5.48c0-5.89.02-11.84.02-17.79zM76.26 69.83c1.73.43 3.38.73 4.95 1.26 5.38 1.8 8.22 5.8 9.2 11.18a41 41 0 01.59 6.64c.07 4.11 0 8.22-.06 12.33-.09 9.24-5.48 15.61-14.62 17.09a54.32 54.32 0 01-8.44.72c-15.36.07-30.71 0-46.06 0-2.39 0-3.75-.81-4.19-2.58a8.49 8.49 0 01-.2-2.14V37.55a9.46 9.46 0 01.06-1.07c.24-2.56 1.44-3.66 4-3.67h39.94a30.44 30.44 0 0112.46 2.37 14.1 14.1 0 018.79 12.39 93.44 93.44 0 010 12.41 10.85 10.85 0 01-6.42 9.85zM44.44 98.74h16.28A3.61 3.61 0 0064.54 95c.07-2.23.06-4.47 0-6.7a3.39 3.39 0 00-3.09-3.49 19.69 19.69 0 00-3-.22h-14zm0-32.61c3.94 0 7.85.08 11.75 0A3.08 3.08 0 0059 63.25a34.16 34.16 0 00.19-5.72c-.17-2.49-1.26-4-3.11-4.05-3.85-.15-7.72 0-11.64 0zm543.8 3.67a56.42 56.42 0 015.51 1.52c5.16 2 7.87 6 8.66 11.23a82 82 0 01.19 21.23c-.91 8.22-6.06 13.2-14.28 14.54a53 53 0 01-8.44.73c-15.31.07-30.62 0-45.93 0a10 10 0 01-1.89-.21 2.88 2.88 0 01-2.51-2.51 13 13 0 01-.22-2.24v-76.3a13.58 13.58 0 010-1.43c.24-2.28 1.5-3.53 3.73-3.53 13.91 0 27.83-.05 41.74.06a26.48 26.48 0 0111.67 2.6 13.84 13.84 0 017.8 10 47.59 47.59 0 01.18 16.06 10.29 10.29 0 01-6.21 8.25zm-31.9 28.93h16.42a3.47 3.47 0 003.57-3.57c.09-2.32.08-4.63 0-7a3.34 3.34 0 00-3.06-3.39 14.1 14.1 0 00-2.14-.21h-14.79zm0-32.57c3.84 0 7.54.06 11.24 0a3.12 3.12 0 003.24-2.91 28.68 28.68 0 00.17-6.07c-.24-2.67-1.59-3.78-4.38-3.85-3.27-.07-6.55 0-9.82 0a1.66 1.66 0 00-.45.14zM189.55 76.17c0 7.38.06 14.77 0 22.16a20.91 20.91 0 01-3.45 11.84c-3 4.33-7.29 6.65-12.13 8.18a63.82 63.82 0 01-16.36 2.51 93.7 93.7 0 01-21.93-1.3 34.06 34.06 0 01-10.84-3.83 18.3 18.3 0 01-9.38-14.56 59.79 59.79 0 01-.33-6.56V55.92a29.44 29.44 0 011.17-9c2-6.31 6.48-10.14 12.46-12.45a48.72 48.72 0 0116.09-3.09c5.23-.17 10.47-.26 15.68 0 6.86.37 13.61 1.51 19.66 5.1a17.53 17.53 0 019.08 14.72c.44 8.28.32 16.59.44 24.89zm-27.1-.1V59.91c0-2.52-.88-3.89-3.34-4.55a20.12 20.12 0 00-5.39-.78 39.87 39.87 0 00-7.8.73c-2.68.56-3.63 2.12-3.63 4.85v32c0 2.68 1 4.21 3.62 4.9A25.45 25.45 0 00159 97c2.42-.63 3.43-2.15 3.43-4.66z"/><path class="cls-6" d="M44.44 98.74V84.58h14a19.69 19.69 0 013 .22 3.39 3.39 0 013.09 3.49c.07 2.23.08 4.47 0 6.7a3.61 3.61 0 01-3.82 3.72c-5.38.06-10.77.03-16.27.03z"/><path d="M44.44 66.13V53.44c3.92 0 7.79-.11 11.64 0 1.85.07 2.94 1.56 3.11 4.05a34.16 34.16 0 01-.19 5.76 3.08 3.08 0 01-2.81 2.84c-3.9.12-7.81.04-11.75.04z" fill="#214323"/><path class="cls-1" d="M556.34 98.73V84.58h14.79a14.1 14.1 0 012.14.21 3.34 3.34 0 013.06 3.39c.08 2.32.09 4.63 0 7a3.47 3.47 0 01-3.57 3.57c-5.43.02-10.86-.02-16.42-.02z"/><path d="M556.32 66.16V53.43a1.66 1.66 0 01.45-.14c3.27 0 6.55-.06 9.82 0 2.79.07 4.14 1.18 4.38 3.85a28.68 28.68 0 01-.17 6.07 3.12 3.12 0 01-3.24 2.91c-3.7.1-7.4.04-11.24.04z" fill="#224524"/><path class="cls-6" d="M162.45 76.07v16.28c0 2.51-1 4-3.43 4.66a25.45 25.45 0 01-13.11 0c-2.61-.69-3.62-2.22-3.62-4.9v-32c0-2.73 1-4.29 3.63-4.85a39.87 39.87 0 017.8-.73 20.12 20.12 0 015.39.78c2.46.66 3.34 2 3.34 4.55zm-16.71 19.64v-22.5a5.68 5.68 0 00-.16-1.42 2.82 2.82 0 00-2.11-2.1v22.85a3.3 3.3 0 002.27 3.17z"/><path d="M145.74 95.71a3.3 3.3 0 01-2.22-3.17V69.69a2.82 2.82 0 012.11 2.1 5.68 5.68 0 01.16 1.42v21.77c-.01.18-.03.37-.05.73z" fill="#edf0ed"/></svg>